<?xml version="1.0" encoding="UTF-8"?>
<svg xmlns="http://www.w3.org/2000/svg" width="900" height="330" viewBox="0 0 900 330" font-family="-apple-system, Segoe UI, Roboto, sans-serif">
  <defs>
    <marker id="ah-ok" markerWidth="11" markerHeight="11" refX="8" refY="4" orient="auto"><path d="M0,0 L8,4 L0,8 Z" fill="#34a853"/></marker>
    <marker id="ah-sk" markerWidth="11" markerHeight="11" refX="8" refY="4" orient="auto"><path d="M0,0 L8,4 L0,8 Z" fill="#9aa0a6"/></marker>
  </defs>
  <text x="20" y="26" font-size="16" font-weight="700" fill="#222">同一产物，两类读者：consume（实读）vs skip（前向空读）</text>

  <!-- stream -->
  <rect x="20"  y="50" width="110" height="52" rx="6" fill="#e8f0fe" stroke="#4a78d6"/>
  <text x="75"  y="80" font-size="12" text-anchor="middle" fill="#1c3d7a">Head</text>
  <rect x="135" y="50" width="160" height="52" rx="6" fill="#e6f4ea" stroke="#34a853"/>
  <text x="215" y="73" font-size="12" text-anchor="middle" fill="#1e6b34">base_codes</text>
  <text x="215" y="91" font-size="11" text-anchor="middle" fill="#3a7a52" font-family="monospace">tag=11</text>
  <rect x="300" y="50" width="190" height="52" rx="6" fill="#e6f4ea" stroke="#34a853"/>
  <text x="395" y="73" font-size="12" text-anchor="middle" fill="#1e6b34">high_precise_codes</text>
  <text x="395" y="91" font-size="11" text-anchor="middle" fill="#3a7a52" font-family="monospace">tag=12 (可选)</text>
  <rect x="495" y="50" width="200" height="52" rx="6" fill="#e6f4ea" stroke="#34a853" stroke-dasharray="5 3"/>
  <text x="595" y="73" font-size="12" text-anchor="middle" fill="#1e6b34">新能力块(v0.17)</text>
  <text x="595" y="91" font-size="11" text-anchor="middle" fill="#3a7a52" font-family="monospace">tag=99, CRITICAL=0</text>
  <rect x="700" y="50" width="60" height="52" rx="6" fill="#ede7f6" stroke="#7e57c2"/>
  <text x="730" y="80" font-size="11" text-anchor="middle" fill="#4a328a">END</text>

  <!-- reader A: low version -->
  <text x="20" y="150" font-size="13" font-weight="700" fill="#444">读者 A：低版本代码（不认识 tag=99）→ 前向兼容</text>
  <line x1="215" y1="160" x2="215" y2="106" stroke="#34a853" stroke-width="2" marker-end="url(#ah-ok)"/>
  <text x="215" y="176" font-size="11" text-anchor="middle" fill="#1e6b34">实读 ✓</text>
  <line x1="395" y1="160" x2="395" y2="106" stroke="#34a853" stroke-width="2" marker-end="url(#ah-ok)"/>
  <text x="395" y="176" font-size="11" text-anchor="middle" fill="#1e6b34">实读 ✓</text>
  <line x1="595" y1="160" x2="595" y2="106" stroke="#9aa0a6" stroke-width="2" stroke-dasharray="5 3" marker-end="url(#ah-sk)"/>
  <text x="595" y="176" font-size="11" text-anchor="middle" fill="#777">空读跳过（不认识）</text>

  <!-- reader B: selective -->
  <text x="20" y="236" font-size="13" font-weight="700" fill="#444">读者 B：加载参数 {"precision":"low"} → 能力选择</text>
  <line x1="215" y1="246" x2="215" y2="246" stroke="#34a853" stroke-width="2"/>
  <line x1="215" y1="262" x2="215" y2="246" stroke="#34a853" stroke-width="2" marker-end="url(#ah-ok)"/>
  <text x="215" y="278" font-size="11" text-anchor="middle" fill="#1e6b34">实读 ✓</text>
  <line x1="395" y1="262" x2="395" y2="246" stroke="#9aa0a6" stroke-width="2" stroke-dasharray="5 3" marker-end="url(#ah-sk)"/>
  <text x="395" y="278" font-size="11" text-anchor="middle" fill="#777">空读跳过（不需要高精度）</text>
  <line x1="595" y1="262" x2="595" y2="246" stroke="#9aa0a6" stroke-width="2" stroke-dasharray="5 3" marker-end="url(#ah-sk)"/>
  <text x="595" y="278" font-size="11" text-anchor="middle" fill="#777">空读跳过</text>

  <text x="20" y="312" font-size="12" fill="#a11">若 tag=99 标了 CRITICAL=1，则读者 A 必须报错“需更高版本 vsag”，而不会静默忽略。</text>
</svg>
